<?xml version="1.0" encoding="UTF-8"?>
<!-- Created with Inkscape (http://www.inkscape.org/) -->
<svg width="421.43" height="398.68" version="1.1" viewBox="0 0 421.43 398.68" xmlns="http://www.w3.org/2000/svg">
 <path transform="matrix(1.3333 0 0 -1.3333 210.72 209.17)" d="m-113.39-99.213h226.77m-226.77 19.843h226.77m-226.77 19.843h226.77m-226.77 19.843h226.77m-226.77 19.843h226.77m-226.77 19.843h226.77m-226.77 19.843h226.77m-226.77 19.843h226.77m-226.77 19.843h226.77m-226.77 19.843h226.77m-226.77 19.843h226.77m-212.6-212.6v226.77m19.843-226.77v226.77m19.843-226.77v226.77m19.843-226.77v226.77m19.843-226.77v226.77m19.843-226.77v226.77m19.843-226.77v226.77m19.843-226.77v226.77m19.843-226.77v226.77m19.843-226.77v226.77m19.843-226.77v226.77" fill="none" stroke="#8c8c8c" stroke-miterlimit="10" stroke-width=".19925"/>
 <g stroke="#000" stroke-miterlimit="10" stroke-width=".79701">
  <path transform="matrix(1.3333 0 0 -1.3333 210.72 209.17)" d="m-127.56 0h248.94" fill="none"/>
  <path transform="matrix(1.3333 0 0 -1.3333 372.56 209.17)" d="m4.5338 0c-0.55677 0.13808-3.0042 0.92049-4.5338 1.772v-3.5439c1.5296 0.85147 3.977 1.6339 4.5338 1.772z"/>
  <path transform="matrix(1.3333 0 0 -1.3333 210.72 209.17)" d="m0-127.56v248.94" fill="none"/>
 </g>
 <g>
  <path transform="matrix(0 -1.3333 -1.3333 0 210.72 47.33)" d="m4.5338 0c-0.55677 0.13808-3.0042 0.92049-4.5338 1.772v-3.5439c1.5296 0.85147 3.977 1.6339 4.5338 1.772z" stroke="#000" stroke-miterlimit="10" stroke-width=".79701"/>
  <path transform="matrix(1.3333 0 0 1.3333 201.71 34.137)" d="m4.8293-4.0903-0.83203-1.9922c-0.035156-0.070312-0.046875-0.11719-0.046875-0.12891 0-0.058594 0.16406-0.24609 0.58594-0.28125 0.09375-0.011719 0.19922-0.023437 0.19922-0.1875 0-0.12891-0.11719-0.12891-0.15234-0.12891-0.41016 0-0.83203 0.035156-1.2539 0.035156-0.24609 0-0.86719-0.035156-1.1133-0.035156-0.058594 0-0.1875 0-0.1875 0.19922 0 0.11719 0.10547 0.11719 0.23438 0.11719 0.59766 0 0.65625 0.09375 0.75 0.31641l1.1719 2.7773-2.0977 2.2617-0.12891 0.10547c-0.49219 0.52734-0.96094 0.69141-1.4648 0.72656-0.12891 0-0.22266 0-0.22266 0.19922 0 0 0 0.10547 0.12891 0.10547 0.30469 0 0.63281-0.035156 0.9375-0.035156 0.36328 0 0.76172 0.035156 1.1133 0.035156 0.058594 0 0.17578 0 0.17578-0.19922 0-0.10547-0.09375-0.10547-0.11719-0.10547-0.082031-0.011719-0.39844-0.035156-0.39844-0.31641 0-0.15234 0.15234-0.31641 0.26953-0.44531l1.0195-1.0781 0.89062-0.97266 1.0078 2.3789c0.046875 0.10547 0.046875 0.11719 0.046875 0.14062 0 0.082031-0.1875 0.24609-0.57422 0.29297-0.10547 0-0.19922 0.011719-0.19922 0.1875 0 0.11719 0.11719 0.11719 0.15234 0.11719 0.28125 0 0.97266-0.035156 1.2539-0.035156 0.24609 0 0.85547 0.035156 1.1016 0.035156 0.070312 0 0.19922 0 0.19922-0.1875 0-0.11719-0.10547-0.11719-0.1875-0.11719-0.66797-0.011719-0.67969-0.046875-0.85547-0.44531-0.38672-0.92578-1.0547-2.4727-1.2891-3.0703 0.67969-0.70312 1.7344-1.8867 2.0508-2.168 0.28125-0.23438 0.66797-0.48047 1.2656-0.50391 0.12891-0.011719 0.21094-0.011719 0.21094-0.19922 0-0.011719 0-0.11719-0.12891-0.11719-0.29297 0-0.62109 0.035156-0.9375 0.035156-0.36328 0-0.73828-0.035156-1.1016-0.035156-0.058594 0-0.1875 0-0.1875 0.19922 0 0.070312 0.046875 0.10547 0.11719 0.11719 0.09375 0.011719 0.39844 0.023437 0.39844 0.30469 0 0.14062-0.10547 0.26953-0.1875 0.36328z" aria-label="X"/>
  <path transform="matrix(1.3333 0 0 1.3333 213.76 29.317)" d="m3.5159-1.2663h-0.23438c-0.023437 0.15234-0.082031 0.5625-0.17578 0.63281-0.058594 0.035156-0.59766 0.035156-0.69141 0.035156h-1.2891c0.73828-0.64453 0.98438-0.84375 1.3945-1.1719 0.51562-0.41016 0.99609-0.84375 0.99609-1.5 0-0.84375-0.73828-1.3594-1.6289-1.3594-0.86719 0-1.4531 0.60938-1.4531 1.2422 0 0.36328 0.30469 0.39844 0.375 0.39844 0.16406 0 0.375-0.11719 0.375-0.375 0-0.12891-0.058594-0.36328-0.42187-0.36328 0.22266-0.50391 0.69141-0.65625 1.0195-0.65625 0.70312 0 1.0664 0.55078 1.0664 1.1133 0 0.60938-0.43359 1.0898-0.65625 1.3359l-1.6875 1.6641c-0.070312 0.058594-0.070312 0.070312-0.070312 0.26953h2.8828z" aria-label="2"/>
 </g>
 <path transform="matrix(1.3333 0 0 -1.3333 210.72 209.17)" d="m81.363 59.528c0 1.1005-0.89209 1.9926-1.9926 1.9926-1.1005 0-1.9926-0.89207-1.9926-1.9926 0-1.1005 0.89207-1.9926 1.9926-1.9926 1.1005 0 1.9926 0.89209 1.9926 1.9926z" fill="#198019" stroke="#198019" stroke-miterlimit="10" stroke-width=".3985"/>
 <path transform="matrix(1.3333 0 0 1.3333 301.48 125.11)" d="m3.0229-3.1514h1.6875c1.418 0 2.8008-1.0312 2.8008-2.1445 0-0.77344-0.65625-1.5117-1.9688-1.5117h-3.2227c-0.1875 0-0.29297 0-0.29297 0.19922 0 0.11719 0.082031 0.11719 0.28125 0.11719 0.12891 0 0.31641 0.011719 0.43359 0.011719 0.15234 0.023437 0.21094 0.058594 0.21094 0.16406 0 0.035156 0 0.070312-0.035156 0.1875l-1.3359 5.3555c-0.09375 0.38672-0.11719 0.46875-0.90234 0.46875-0.17578 0-0.28125 0-0.28125 0.1875 0 0.11719 0.11719 0.11719 0.15234 0.11719 0.28125 0 0.98437-0.035156 1.2656-0.035156 0.21094 0 0.42188 0.011719 0.63281 0.011719 0.22266 0 0.44531 0.023437 0.64453 0.023437 0.070312 0 0.19922 0 0.19922-0.19922 0-0.10547-0.082031-0.10547-0.26953-0.10547-0.375 0-0.65625 0-0.65625-0.1875 0-0.058594 0.023437-0.10547 0.035156-0.16406zm0.71484-2.9648c0.082031-0.35156 0.10547-0.375 0.53906-0.375h0.94922c0.83203 0 1.3594 0.26953 1.3594 0.94922 0 0.39844-0.19922 1.2539-0.58594 1.6055-0.50391 0.44531-1.1016 0.52734-1.5352 0.52734h-1.4062z" fill="#198019" aria-label="P"/>
 <path transform="matrix(1.3333 0 0 -1.3333 210.72 209.17)" d="m-139.97-99.213h226.77m-221.46 19.843h226.77m-221.46 19.843h226.77m-221.46 19.843h226.77m-221.46 19.843h226.77m-221.46 19.843h226.77m-221.46 19.843h226.77m-221.46 19.843h226.77m-221.46 19.843h226.77m-221.46 19.843h226.77m-221.46 19.843h226.77m-269.56-212.6 60.759 226.77m-40.917-226.77 60.759 226.77m-40.917-226.77 60.759 226.77m-40.917-226.77 60.759 226.77m-40.917-226.77 60.759 226.77m-40.917-226.77 60.759 226.77m-40.917-226.77 60.759 226.77m-40.917-226.77 60.759 226.77m-40.917-226.77 60.759 226.77m-40.917-226.77 60.759 226.77m-40.917-226.77 60.759 226.77" fill="none" stroke="#5e70b8" stroke-miterlimit="10" stroke-width=".19925"/>
 <g stroke="#193399" stroke-miterlimit="10" stroke-width=".79701">
  <path transform="matrix(1.3333 0 0 -1.3333 210.72 209.17)" d="m-127.56 0h248.94" fill="none"/>
  <path transform="matrix(1.3333 0 0 -1.3333 372.56 209.17)" d="m4.5338 0c-0.55677 0.13808-3.0042 0.92049-4.5338 1.772v-3.5439c1.5296 0.85147 3.977 1.6339 4.5338 1.772z" fill="#193399"/>
  <path transform="matrix(1.3333 0 0 -1.3333 210.72 209.17)" d="m-34.177-127.56 66.756 249.15" fill="none"/>
 </g>
 <g fill="#193399">
  <path transform="matrix(.34505 -1.2879 -1.2879 -.34505 254.16 47.049)" d="m4.5338 0c-0.55677 0.13808-3.0042 0.92049-4.5338 1.772v-3.5439c1.5296 0.85147 3.977 1.6339 4.5338 1.772z" stroke="#193399" stroke-miterlimit="10" stroke-width=".79701"/>
  <path transform="matrix(1.3333 0 0 1.3333 247.97 34.137)" d="m5.9428-5.6723 0.14062-0.14062c0.30469-0.29297 0.63281-0.63281 1.3125-0.67969 0.10547-0.011719 0.19922-0.011719 0.19922-0.1875 0-0.082031-0.058594-0.12891-0.12891-0.12891-0.25781 0-0.55078 0.035156-0.82031 0.035156-0.32812 0-0.67969-0.035156-0.99609-0.035156-0.058594 0-0.1875 0-0.1875 0.19922 0 0.10547 0.09375 0.11719 0.15234 0.11719 0.070312 0 0.35156 0.011719 0.35156 0.22266 0 0.17578-0.22266 0.43359-0.26953 0.48047l-2.3086 2.6602-1.0898-2.9531c-0.070312-0.14062-0.070312-0.16406-0.070312-0.17578 0-0.23438 0.49219-0.23438 0.59766-0.23438 0.12891 0 0.23438 0 0.23438-0.19922 0-0.11719-0.11719-0.11719-0.15234-0.11719-0.28125 0-0.97266 0.035156-1.2539 0.035156-0.24609 0-0.86719-0.035156-1.1133-0.035156-0.058594 0-0.1875 0-0.1875 0.19922 0 0.11719 0.09375 0.11719 0.22266 0.11719 0.59766 0 0.64453 0.082031 0.72656 0.33984l1.2305 3.2695c0.011719 0.035156 0.035156 0.14062 0.035156 0.17578 0 0.023437-0.39844 1.6289-0.44531 1.8047-0.12891 0.55078-0.14062 0.58594-0.9375 0.59766-0.1875 0-0.26953 0-0.26953 0.19922 0 0.10547 0.11719 0.10547 0.14063 0.10547 0.28125 0 0.97266-0.035156 1.2539-0.035156s0.99609 0.035156 1.2773 0.035156c0.070312 0 0.1875 0 0.1875-0.19922 0-0.10547-0.082031-0.10547-0.28125-0.10547-0.011719 0-0.19922 0-0.375-0.023438-0.21094-0.023438-0.26953-0.035156-0.26953-0.16406 0-0.070312 0.09375-0.41016 0.14062-0.62109l0.35156-1.4062c0.046875-0.1875 0.058594-0.22266 0.14062-0.30469z" aria-label="Y"/>
  <path transform="matrix(1.3333 0 0 1.3333 258.64 29.317)" d="m3.5142-1.2663h-0.23438c-0.023437 0.15234-0.082031 0.5625-0.17578 0.63281-0.058594 0.035156-0.59766 0.035156-0.69141 0.035156h-1.2891c0.73828-0.64453 0.98438-0.84375 1.3945-1.1719 0.51562-0.41016 0.99609-0.84375 0.99609-1.5 0-0.84375-0.73828-1.3594-1.6289-1.3594-0.86719 0-1.4531 0.60938-1.4531 1.2422 0 0.36328 0.30469 0.39844 0.375 0.39844 0.16406 0 0.375-0.11719 0.375-0.375 0-0.12891-0.058594-0.36328-0.42187-0.36328 0.22266-0.50391 0.69141-0.65625 1.0195-0.65625 0.70312 0 1.0664 0.55078 1.0664 1.1133 0 0.60938-0.43359 1.0898-0.65625 1.3359l-1.6875 1.6641c-0.070312 0.058594-0.070312 0.070312-0.070312 0.26953h2.8828z" aria-label="2"/>
 </g>
 <g>
  <path transform="matrix(1.3333 0 0 1.3333 371.79 224.68)" d="m4.8289-4.0911-0.83203-1.9922c-0.035156-0.070312-0.046875-0.11719-0.046875-0.12891 0-0.058594 0.16406-0.24609 0.58594-0.28125 0.09375-0.011719 0.19922-0.023437 0.19922-0.1875 0-0.12891-0.11719-0.12891-0.15234-0.12891-0.41016 0-0.83203 0.035156-1.2539 0.035156-0.24609 0-0.86719-0.035156-1.1133-0.035156-0.058594 0-0.1875 0-0.1875 0.19922 0 0.11719 0.10547 0.11719 0.23438 0.11719 0.59766 0 0.65625 0.09375 0.75 0.31641l1.1719 2.7773-2.0977 2.2617-0.12891 0.10547c-0.49219 0.52734-0.96094 0.69141-1.4648 0.72656-0.12891 0-0.22266 0-0.22266 0.19922 0 0 0 0.10547 0.12891 0.10547 0.30469 0 0.63281-0.035156 0.9375-0.035156 0.36328 0 0.76172 0.035156 1.1133 0.035156 0.058594 0 0.17578 0 0.17578-0.19922 0-0.10547-0.09375-0.10547-0.11719-0.10547-0.082031-0.011719-0.39844-0.035156-0.39844-0.31641 0-0.15234 0.15234-0.31641 0.26953-0.44531l1.0195-1.0781 0.89062-0.97266 1.0078 2.3789c0.046875 0.10547 0.046875 0.11719 0.046875 0.14062 0 0.082031-0.1875 0.24609-0.57422 0.29297-0.10547 0-0.19922 0.011719-0.19922 0.1875 0 0.11719 0.11719 0.11719 0.15234 0.11719 0.28125 0 0.97266-0.035156 1.2539-0.035156 0.24609 0 0.85547 0.035156 1.1016 0.035156 0.070312 0 0.19922 0 0.19922-0.1875 0-0.11719-0.10547-0.11719-0.1875-0.11719-0.66797-0.011719-0.67969-0.046875-0.85547-0.44531-0.38672-0.92578-1.0547-2.4727-1.2891-3.0703 0.67969-0.70312 1.7344-1.8867 2.0508-2.168 0.28125-0.23438 0.66797-0.48047 1.2656-0.50391 0.12891-0.011719 0.21094-0.011719 0.21094-0.19922 0-0.011719 0-0.11719-0.12891-0.11719-0.29297 0-0.62109 0.035156-0.9375 0.035156-0.36328 0-0.73828-0.035156-1.1016-0.035156-0.058594 0-0.1875 0-0.1875 0.19922 0 0.070312 0.046875 0.10547 0.11719 0.11719 0.09375 0.011719 0.39844 0.023437 0.39844 0.30469 0 0.14062-0.10547 0.26953-0.1875 0.36328z" aria-label="X"/>
  <path transform="matrix(1.3333 0 0 1.3333 383.84 219.86)" d="m2.3319-4.4302c0-0.1875-0.011719-0.19922-0.21094-0.19922-0.44531 0.43359-1.0781 0.44531-1.3594 0.44531v0.24609c0.16406 0 0.62109 0 1.0078-0.1875v3.5508c0 0.23438 0 0.32812-0.69141 0.32812h-0.26953v0.24609c0.12891-0.011719 0.98438-0.023438 1.2422-0.023438 0.21094 0 1.0898 0.011719 1.2422 0.023438v-0.24609h-0.25781c-0.70312 0-0.70312-0.09375-0.70312-0.32812z" aria-label="1"/>
  <path transform="matrix(1.3333 0 0 1.3333 372.48 204.48)" d="m5.9417-5.6706 0.14062-0.14062c0.30469-0.29297 0.63281-0.63281 1.3125-0.67969 0.10547-0.011719 0.19922-0.011719 0.19922-0.1875 0-0.082031-0.058594-0.12891-0.12891-0.12891-0.25781 0-0.55078 0.035156-0.82031 0.035156-0.32812 0-0.67969-0.035156-0.99609-0.035156-0.058594 0-0.1875 0-0.1875 0.19922 0 0.10547 0.09375 0.11719 0.15234 0.11719 0.070312 0 0.35156 0.011719 0.35156 0.22266 0 0.17578-0.22266 0.43359-0.26953 0.48047l-2.3086 2.6602-1.0898-2.9531c-0.070312-0.14062-0.070312-0.16406-0.070312-0.17578 0-0.23438 0.49219-0.23438 0.59766-0.23438 0.12891 0 0.23438 0 0.23438-0.19922 0-0.11719-0.11719-0.11719-0.15234-0.11719-0.28125 0-0.97266 0.035156-1.2539 0.035156-0.24609 0-0.86719-0.035156-1.1133-0.035156-0.058594 0-0.1875 0-0.1875 0.19922 0 0.11719 0.09375 0.11719 0.22266 0.11719 0.59766 0 0.64453 0.082031 0.72656 0.33984l1.2305 3.2695c0.011719 0.035156 0.035156 0.14062 0.035156 0.17578 0 0.023437-0.39844 1.6289-0.44531 1.8047-0.12891 0.55078-0.14062 0.58594-0.9375 0.59766-0.1875 0-0.26953 0-0.26953 0.19922 0 0.10547 0.11719 0.10547 0.14063 0.10547 0.28125 0 0.97266-0.035156 1.2539-0.035156s0.99609 0.035156 1.2773 0.035156c0.070312 0 0.1875 0 0.1875-0.19922 0-0.10547-0.082031-0.10547-0.28125-0.10547-0.011719 0-0.19922 0-0.375-0.023438-0.21094-0.023438-0.26953-0.035156-0.26953-0.16406 0-0.070312 0.09375-0.41016 0.14062-0.62109l0.35156-1.4062c0.046875-0.1875 0.058594-0.22266 0.14062-0.30469z" fill="#193399" aria-label="Y"/>
  <path transform="matrix(1.3333 0 0 1.3333 383.15 199.66)" d="m2.3324-4.4306c0-0.1875-0.011719-0.19922-0.21094-0.19922-0.44531 0.43359-1.0781 0.44531-1.3594 0.44531v0.24609c0.16406 0 0.62109 0 1.0078-0.1875v3.5508c0 0.23438 0 0.32812-0.69141 0.32812h-0.26953v0.24609c0.12891-0.011719 0.98438-0.023437 1.2422-0.023437 0.21094 0 1.0898 0.011719 1.2422 0.023437v-0.24609h-0.25781c-0.70312 0-0.70312-0.09375-0.70312-0.32812z" fill="#193399" aria-label="1"/>
 </g>
 <path transform="matrix(1.3333 0 0 -1.3333 210.72 209.17)" d="m8.803 32.857c-2.8692 0.76871-5.8325 1.1596-8.803 1.1596" fill="none" stroke="#991919" stroke-miterlimit="10" stroke-width="1.1955"/>
 <path transform="matrix(1.3333 0 0 1.3333 214.57 159.45)" d="m4.535-4.9816c0-0.65625-0.1875-2.0391-1.1953-2.0391-1.3828 0-2.918 2.8008-2.918 5.0859 0 0.9375 0.28125 2.0391 1.1953 2.0391 1.4062 0 2.918-2.8594 2.918-5.0859zm-3.0586 1.3594c0.16406-0.63281 0.36328-1.4297 0.76172-2.1328 0.26953-0.49219 0.64453-1.0547 1.0898-1.0547 0.49219 0 0.55078 0.64453 0.55078 1.207 0 0.49219-0.082031 0.99609-0.32812 1.9805zm1.9922 0.32812c-0.11719 0.45703-0.31641 1.3008-0.70312 2.0156-0.33984 0.67969-0.72656 1.1719-1.1484 1.1719-0.32812 0-0.53906-0.29297-0.53906-1.2188 0-0.42188 0.058594-0.99609 0.31641-1.9688z" fill="#991919" aria-label="θ"/>
</svg>
